<svg width="26" height="30" viewBox="0 0 26 30" fill="none" xmlns="http://www.w3.org/2000/svg">
<path d="M11.5 28C11.5 28.8284 12.1716 29.5 13 29.5C13.8284 29.5 14.5 28.8284 14.5 28L11.5 28ZM14.0607 4.93934C13.4749 4.35355 12.5251 4.35355 11.9393 4.93934L2.3934 14.4853C1.80761 15.0711 1.80761 16.0208 2.3934 16.6066C2.97919 17.1924 3.92893 17.1924 4.51472 16.6066L13 8.12132L21.4853 16.6066C22.0711 17.1924 23.0208 17.1924 23.6066 16.6066C24.1924 16.0208 24.1924 15.0711 23.6066 14.4853L14.0607 4.93934ZM14.5 28L14.5 6L11.5 6L11.5 28L14.5 28Z" fill="white"/>
<line x1="1.5" y1="1.5" x2="24.5" y2="1.5" stroke="white" stroke-width="3" stroke-linecap="round"/>
</svg>
